<?xml version="1.0" encoding="UTF-8" standalone="no"?>
<svg width="476px" height="476px" viewBox="0 0 476 476" version="1.1" xmlns="http://www.w3.org/2000/svg" xmlns:xlink="http://www.w3.org/1999/xlink">
    <!-- Generator: Sketch 3.7.2 (28276) - http://www.bohemiancoding.com/sketch -->
    <title>graph3</title>
    <desc>Created with Sketch.</desc>
    <defs>
        <linearGradient x1="0.25781251%" y1="49.7500002%" x2="101.257813%" y2="49.7500002%" id="linearGradient-1">
            <stop stop-color="#3023AE" offset="0%"></stop>
            <stop stop-color="#53A0FE" offset="47.5247532%"></stop>
            <stop stop-color="#B4ED50" offset="100%"></stop>
        </linearGradient>
    </defs>
    <g id="Page-1" stroke="none" stroke-width="1" fill="none" fill-rule="evenodd">
        <g id="graph3">
            <g id="axis2" transform="translate(10.000000, 243.000000)">
                <g transform="translate(0.000000, 1.000000)">
                    <path d="M1,191 L422,191" id="Line" stroke="#979797" stroke-width="2" stroke-linecap="square"></path>
                    <path id="Line-decoration-1" d="M411.2,194 L422,191 L411.2,188" stroke="#979797" stroke-width="2" stroke-linecap="square"></path>
                    <path d="M1,191 L1,7" id="Line" stroke="#979797" stroke-width="2" stroke-linecap="square"></path>
                    <path id="Line-decoration-1" d="M4,17.8 L1,7 L-2,17.8" stroke="#979797" stroke-width="2" stroke-linecap="square"></path>
                    <text id="t" font-family="Georgia-Italic, Georgia" font-size="18" font-style="italic" font-weight="normal" fill="#4A4A4A">
                        <tspan x="10" y="17">basic local time</tspan>
                    </text>
                    <text id="tp" font-family="Georgia-Italic, Georgia" font-size="18" font-style="italic" font-weight="normal" fill="#4A4A4A">
                        <tspan x="406" y="173">t</tspan>
                        <tspan x="412.249023" y="173">p</tspan>
                    </text>
                </g>
            </g>
            <g id="interations" transform="translate(62.000000, 404.000000)" fill="url(#linearGradient-1)">
                <polygon id="iter-1" points="84.7053986 0.941140828 84.7053986 31 0 31"></polygon>
                <polygon id="iter-2" transform="translate(126.352699, 16.029430) scale(-1, 1) translate(-126.352699, -16.029430) " points="168.705399 1 168.705399 31.0588592 84 31.0588592"></polygon>
                <polygon id="iter-3" points="250.705399 1 250.705399 31.0588592 166 31.0588592"></polygon>
                <polygon id="iter-4" transform="translate(292.352699, 16.029430) scale(-1, 1) translate(-292.352699, -16.029430) " points="334.705399 1 334.705399 31.0588592 250 31.0588592"></polygon>
            </g>
            <path d="M146.5,434.5 L146.5,162.5" id="Line" stroke="#979797" stroke-linecap="square" stroke-dasharray="5"></path>
            <path d="M229.5,435.5 L229.5,134.5" id="Line-Copy-2" stroke="#979797" stroke-linecap="square" stroke-dasharray="5"></path>
            <path d="M312.5,436.5 L312.5,104.5" id="Line-Copy-3" stroke="#979797" stroke-linecap="square" stroke-dasharray="5"></path>
            <path d="M395.5,429.5 L395.5,76.5" id="Line-Copy-4" stroke="#979797" stroke-linecap="square" stroke-dasharray="5"></path>
            <g id="axis2" transform="translate(10.000000, 0.000000)">
                <g transform="translate(0.000000, 1.000000)">
                    <path d="M1,191 L422,191" id="Line" stroke="#979797" stroke-width="2" stroke-linecap="square"></path>
                    <path id="Line-decoration-1" d="M411.2,194 L422,191 L411.2,188" stroke="#979797" stroke-width="2" stroke-linecap="square"></path>
                    <path d="M1,191 L1,7" id="Line" stroke="#979797" stroke-width="2" stroke-linecap="square"></path>
                    <path id="Line-decoration-1" d="M4,17.8 L1,7 L-2,17.8" stroke="#979797" stroke-width="2" stroke-linecap="square"></path>
                    <text id="t" font-family="Georgia-Italic, Georgia" font-size="18" font-style="italic" font-weight="normal" fill="#4A4A4A">
                        <tspan x="10" y="17">active local time</tspan>
                    </text>
                    <text id="tp" font-family="Georgia-Italic, Georgia" font-size="18" font-style="italic" font-weight="normal" fill="#4A4A4A">
                        <tspan x="406" y="173">t</tspan>
                        <tspan x="412.249023" y="173">p</tspan>
                    </text>
                </g>
            </g>
            <path d="M63,192 L485,44" id="Line" stroke="#4990E2" stroke-width="2" stroke-linecap="square"></path>
            <path d="M63,435 L485,287" id="Line-Copy" stroke="#9B9B9B" stroke-width="2" stroke-linecap="square" stroke-dasharray="5"></path>
            <text id="speed" font-family="Georgia-Italic, Georgia" font-size="18" font-style="italic" font-weight="normal" fill="#4990E2">
                <tspan x="396" y="47">speed</tspan>
            </text>
        </g>
    </g>
</svg>